<svg width="27" height="28" viewBox="0 0 27 28" fill="none" xmlns="http://www.w3.org/2000/svg">
<g filter="url(#filter0_d_10_1193)">
<path d="M4 17.7143V7.42857C4 7.06666 4.08114 6.72381 4.24343 6.4C4.40571 6.07619 4.62933 5.80952 4.91429 5.6L11.7714 0.457143C12.1714 0.152381 12.6286 0 13.1429 0C13.6571 0 14.1143 0.152381 14.5143 0.457143L21.3714 5.6C21.6571 5.80952 21.8811 6.07619 22.0434 6.4C22.2057 6.72381 22.2865 7.06666 22.2857 7.42857V17.7143C22.2857 18.3429 22.0617 18.8811 21.6137 19.3291C21.1657 19.7771 20.6278 20.0008 20 20H16.5714C16.2476 20 15.9764 19.8903 15.7577 19.6709C15.539 19.4514 15.4293 19.1802 15.4286 18.8571V13.1429C15.4286 12.819 15.3189 12.5478 15.0994 12.3291C14.88 12.1105 14.6088 12.0008 14.2857 12H12C11.6762 12 11.405 12.1097 11.1863 12.3291C10.9676 12.5486 10.8579 12.8198 10.8571 13.1429V18.8571C10.8571 19.1809 10.7474 19.4526 10.528 19.672C10.3086 19.8914 10.0373 20.0008 9.71428 20H6.28571C5.65714 20 5.11924 19.7764 4.672 19.3291C4.22476 18.8819 4.00076 18.3436 4 17.7143Z" fill="#388807"/>
<path d="M13.1426 0.5C13.5499 0.5 13.9002 0.617881 14.2109 0.854492L14.2139 0.857422L21.0713 6L21.0762 6.00293C21.2964 6.16448 21.4691 6.36951 21.5967 6.62402C21.724 6.87801 21.7867 7.14407 21.7861 7.42773V17.7139C21.7861 18.2086 21.6148 18.6205 21.2598 18.9756C20.9048 19.3304 20.4943 19.5005 20.001 19.5H16.5713C16.374 19.5 16.2324 19.4387 16.1123 19.3184C16.0214 19.2271 15.9636 19.1234 15.9404 18.9941L15.9287 18.8564V13.1426C15.9286 12.6927 15.7703 12.2917 15.4521 11.9746C15.135 11.6587 14.7355 11.5011 14.2871 11.5H12C11.55 11.5 11.1491 11.6583 10.832 11.9766C10.5161 12.2937 10.3585 12.6931 10.3574 13.1416V18.8574C10.3574 19.0548 10.2958 19.1973 10.1748 19.3184C10.0537 19.4394 9.91176 19.5004 9.71582 19.5H6.28613C5.7911 19.5 5.37952 19.3297 5.02539 18.9756C4.67134 18.6215 4.50064 18.2099 4.5 17.7139V7.42871C4.5 7.14465 4.56296 6.87835 4.69043 6.62402C4.81817 6.36914 4.99125 6.16446 5.21094 6.00293L5.21387 6L12.0713 0.857422L12.0742 0.854492C12.3849 0.617756 12.7352 0.500054 13.1426 0.5Z" stroke="black"/>
</g>
<defs>
<filter id="filter0_d_10_1193" x="0" y="0" width="26.2857" height="28" filterUnits="userSpaceOnUse" color-interpolation-filters="sRGB">
<feFlood flood-opacity="0" result="BackgroundImageFix"/>
<feColorMatrix in="SourceAlpha" type="matrix" values="0 0 0 0 0 0 0 0 0 0 0 0 0 0 0 0 0 0 127 0" result="hardAlpha"/>
<feOffset dy="4"/>
<feGaussianBlur stdDeviation="2"/>
<feComposite in2="hardAlpha" operator="out"/>
<feColorMatrix type="matrix" values="0 0 0 0 0 0 0 0 0 0 0 0 0 0 0 0 0 0 0.25 0"/>
<feBlend mode="normal" in2="BackgroundImageFix" result="effect1_dropShadow_10_1193"/>
<feBlend mode="normal" in="SourceGraphic" in2="effect1_dropShadow_10_1193" result="shape"/>
</filter>
</defs>
</svg>
